<?xml version="1.0" encoding="utf-8"?>
<!-- Generator: Adobe Illustrator 18.0.0, SVG Export Plug-In . SVG Version: 6.00 Build 0)  -->
<!DOCTYPE svg PUBLIC "-//W3C//DTD SVG 1.1//EN" "http://www.w3.org/Graphics/SVG/1.1/DTD/svg11.dtd">
<svg version="1.1" id="Layer_1" xmlns="http://www.w3.org/2000/svg" xmlns:xlink="http://www.w3.org/1999/xlink" x="0px" y="0px"
	 width="341.2px" height="62.1px" viewBox="0 0 341.2 62.1" enable-background="new 0 0 341.2 62.1" xml:space="preserve">
<g>
	<path fill="#24373F" d="M341.2,40.7c-0.3,1-0.6,2-0.9,3c-0.2,0.6-0.5,1.3-0.8,1.9c-0.1,0.2-0.5,0.4-0.8,0.4c-4,0-8.1,0.1-12.1,0
		c-4.9-0.2-8.7-2.8-10.6-7.8c-1.1-2.9-1.5-5.8-1.5-8.9c0-3.1,0.2-6.2,1.2-9.2c1.5-4.3,4.3-7.2,8.9-8.1c5.5-1.2,10.2,1,13,5.9
		c1.6,2.9,2.5,6,2.5,9.3c0.1,3.5-0.2,7-1.4,10.3c-0.3,0.9-0.8,1.8-1.2,2.8c1.3,0,2.5,0,3.8,0C341.2,40.5,341.2,40.6,341.2,40.7z
		 M321.4,28.3c0.1,1.5,0.2,2.9,0.4,4.2c0.2,1.6,0.8,3.1,1.8,4.3c1.6,1.8,5.2,2.8,7.4-0.4c0.4-0.6,0.7-1.2,1-1.9
		c0.9-2.6,1.1-5.3,0.8-8c-0.2-1.9-0.7-3.7-1.9-5.3c-1.7-2.3-4.7-2.6-6.9-0.7c-1,0.9-1.6,2-1.9,3.3C321.8,25.4,321.7,26.9,321.4,28.3
		z"/>
	<g>
		<g>
			<path fill="#1292EE" d="M0.5,0.5c0.2,0,0.4,0,0.7,0c17.9,0,35.8,0,53.7,0c0.2,0,0.5,0,0.8,0c0,6,0,11.9,0,17.9
				c-1.4,0-2.7,0-4.2,0c0-4.6,0-9.1,0-13.7c-15.6,0-31.1,0-46.7,0c0,0.3,0,0.5,0,0.8c0,18.4,0,36.8,0,55.3c0,0.3,0,0.6,0,0.8
				c-1.4,0-2.8,0-4.2,0C0.5,41.3,0.5,20.9,0.5,0.5z"/>
		</g>
		<g>
			<path fill="#1292EE" d="M5.2,62.1H0V0l0.7,0C0.8,0,1,0,1.2,0l54.9,0v18.9h-5.2V5.2H5.2l0,55.6c0,0.2,0,0.4,0,0.6L5.2,62.1z
				 M1,61.1h3.2c0-0.1,0-0.2,0-0.3l0-56.6h47.7v13.7h3.2V1L1.2,1C1.1,1,1.1,1,1,1V61.1z"/>
		</g>
	</g>
	<path fill="#24373F" d="M301.9,31.2c-2.6,0-5.2,0-7.9,0c0,4.7,0,9.4,0,14.2c-2.9,0-5.8,0-8.8,0c0-0.2,0-0.5,0-0.7
		c0-10.8,0-21.5,0-32.3c0-0.6,0.1-0.8,0.7-0.8c2.4,0,4.9,0,7.3,0c0.2,0,0.4,0,0.7,0c0,4.3,0,8.5,0,12.8c2.7,0,5.3,0,7.9,0
		c0-4.3,0-8.5,0-12.8c2.9,0,5.8,0,8.7,0c0,11.2,0,22.4,0,33.7c-2.9,0-5.8,0-8.7,0C301.9,40.7,301.9,36,301.9,31.2z"/>
	<path fill="#24373F" d="M84.1,17.9c0,2.1,0,4.1,0,6.1c4.9,0,9.8,0,14.7,0c0,2.1,0,4.1,0,6.2c-4.9,0-9.8,0-14.7,0
		c0,5.2,0,10.3,0,15.4c-3.2,0-6.4,0-9.6,0c0-11.3,0-22.6,0-33.9c8.5,0,17,0,25.5,0c0,2,0,4.1,0,6.2C94.7,17.9,89.4,17.9,84.1,17.9z"
		/>
	<path fill="#24373F" d="M255.2,30.6c0.3-0.3,0.4-0.5,0.5-0.7c2.2-3,4.3-6.1,6.5-9.1c0.2-0.3,0.5-0.5,0.9-0.5c2.6,0,5.2,0,7.7,0
		c0.2,0,0.4,0,0.6,0c-0.2,0.3-0.3,0.4-0.4,0.6c-2.5,3.4-5.1,6.8-7.6,10.2c-0.3,0.4-0.3,0.7,0,1.1c2.6,4.2,5.2,8.5,7.7,12.7
		c0.1,0.2,0.2,0.4,0.4,0.6c-0.2,0-0.4,0-0.5,0c-2.6,0-5.3,0-7.9,0c-0.4,0-0.6-0.1-0.8-0.5c-1.8-3.2-3.6-6.4-5.4-9.5
		c-0.1-0.2-0.2-0.4-0.4-0.7c-0.5,0.8-1.3,1.3-1.2,2.4c0.1,2.7,0,5.5,0,8.3c-2.5,0-5,0-7.5,0c0-11.3,0-22.6,0-33.9c2.5,0,5,0,7.5,0
		C255.2,18,255.2,24.2,255.2,30.6z"/>
	<g>
		<g>
			<path fill="#1292EE" d="M46.6,26.5c0,5.8,0,11.5,0,17.2c-10.1,0-20.1,0-30.2,0c0-1.4,0-2.7,0-4.2c8.6,0,17.3,0,26,0
				c0-2.9,0-5.8,0-8.8c-8.6,0-17.3,0-26,0c0-5.5,0-11,0-16.5c10,0,20.1,0,30.2,0c0,1.4,0,2.7,0,4.1c-8.6,0-17.2,0-25.9,0
				c0,2.7,0,5.3,0,8.1C29.3,26.5,37.9,26.5,46.6,26.5z"/>
		</g>
		<g>
			<path fill="#1292EE" d="M47.1,44.2H15.9v-5.2h26v-7.8h-26V13.8h31.2V19H21.2V26h26V44.2z M16.9,43.2h29.2V27h-26V18h25.9v-3.1
				H16.9v15.5h26v9.8h-26V43.2z"/>
		</g>
	</g>
	<path fill="#24373F" d="M117.8,20.4c2.6,0,5.1,0,7.6,0c0,8.4,0,16.8,0,25.2c-2.5,0-5,0-7.6,0c0-0.8,0-1.6,0-2.6
		c-0.4,0.3-0.6,0.5-0.9,0.7c-1.5,1.2-3.1,2.3-5.1,2.5c-1.5,0.2-3,0.2-4.5-0.3c-2.7-1-4.1-3.1-4.5-5.8c-0.2-1-0.3-2-0.3-3
		c0-5.4,0-10.9,0-16.3c0-0.1,0-0.3,0-0.4c2.6,0,5.1,0,7.7,0c0,0.2,0,0.5,0,0.7c0,4.7,0,9.4,0,14c0,0.9,0.1,1.8,0.3,2.7
		c0.3,1.2,1,1.9,2.2,2c1.8,0.3,3.3-0.3,4.8-1.2c0.1-0.1,0.2-0.4,0.2-0.6c0-5.6,0-11.2,0-16.7C117.8,21,117.8,20.7,117.8,20.4z"/>
	<path fill="#24373F" d="M210.9,29.5c0.2-1.3-0.4-2.4-1.6-3c-1.7-0.7-3.5-0.8-5.2-0.6c-1.8,0.2-3.6,0.8-5.3,1.5
		c-0.3,0.1-0.7,0.2-1.1,0.3c0-0.4,0-0.7,0-0.9c0-1.5,0-3.1,0-4.6c0-0.3,0.1-0.5,0.4-0.6c4.3-1,8.7-1.5,13.1-0.7c2,0.4,4,1,5.4,2.5
		c1.4,1.5,1.9,3.3,2,5.3c0,5.6,0,11.1,0,16.7c0,0.1,0,0.2,0,0.3c-2.5,0-5,0-7.6,0c0-0.8,0-1.6,0-2.5c-0.5,0.4-0.8,0.7-1.2,1
		c-2.5,2-5.3,2.7-8.4,2c-3.1-0.6-5.4-3.4-5.7-6.6c-0.1-2.1,0.1-4.1,1.4-5.9c1.2-1.5,2.9-2.3,4.7-2.9c2.3-0.7,4.6-0.8,7-1.1
		C209.4,29.6,210.2,29.6,210.9,29.5z M210.8,34c-1.8,0.3-3.6,0.5-5.2,1c-1.8,0.5-2.5,1.8-2.3,3.7c0.1,1,0.7,1.7,1.7,2
		c2.1,0.6,3.9,0.2,5.5-1.2c0.1-0.1,0.3-0.3,0.3-0.4C210.9,37.4,210.8,35.8,210.8,34z"/>
	<path fill="#24373F" d="M172.1,28.5c-0.4-0.2-0.7-0.2-1-0.4c-1.8-1.2-3.7-2.1-5.9-2.4c-1.4-0.1-2.8-0.1-4,0.6c-0.6,0.3-1,0.7-1,1.5
		c0,0.7,0.4,1.3,1,1.5c1.3,0.4,2.6,0.7,3.9,1.1c1.2,0.3,2.5,0.6,3.7,1c5.9,2.2,5.4,9.3,1.7,12.2c-2.1,1.6-4.4,2.3-6.9,2.6
		c-3.7,0.3-7.3-0.1-10.8-1.6c-0.4-0.2-0.5-0.4-0.5-0.8c0-1.8,0-3.6,0-5.4c0-0.2,0-0.4,0-0.7c0.4,0.2,0.8,0.3,1.1,0.5
		c2.5,1.8,5.2,2.9,8.3,2.8c0.9,0,1.7-0.3,2.6-0.5c0.7-0.2,1.2-0.7,1.2-1.5c0-0.8-0.4-1.4-1.2-1.6c-1.4-0.4-2.9-0.7-4.3-1.1
		c-1.4-0.4-2.8-0.8-4-1.4c-4.2-2.1-4.4-7.8-2-10.7c1.6-1.9,3.7-2.9,6.1-3.3c4-0.8,7.8-0.4,11.6,1.1c0.4,0.2,0.6,0.4,0.6,0.9
		C172,24.7,172.1,26.5,172.1,28.5z"/>
	<path fill="#24373F" d="M186.4,21.2c2.5,0,4.9,0,7.3,0c0,1.8,0,3.5,0,5.3c-2.4,0-4.8,0-7.3,0c0,0.3,0,0.5,0,0.7c0,3.2,0,6.5,0,9.7
		c0,0.1,0,0.2,0,0.2c0,2.7,1.4,3.9,4.4,3.5c0.7-0.1,1.3-0.4,2-0.5c0.3-0.1,0.6-0.1,0.9-0.2c0,1.8,0,3.5,0,5.2c0,0.1-0.2,0.3-0.4,0.4
		c-3.1,0.7-6.2,0.9-9.3,0.2c-3.3-0.7-5.2-3-5.3-6.6c-0.1-3.9,0-7.9,0-11.8c0-0.2,0-0.5,0-0.8c-1,0-1.9,0-2.9,0c0-1.8,0-3.5,0-5.3
		c1,0,1.9,0,2.9,0c0-2.4,0-4.7,0-7c2.6,0,5.1,0,7.6,0C186.4,16.5,186.4,18.8,186.4,21.2z"/>
	<path fill="#24373F" d="M243.9,28.9c-0.6,0.1-1,0-1.5-0.4c-1.6-1.5-3.5-2.5-5.8-2.6c-3.2-0.1-5.3,1.4-6.2,4.4
		c-0.6,2.1-0.6,4.2,0,6.3c0.7,2.5,2.7,3.9,5.3,4.1c2.5,0.1,4.8-0.6,6.6-2.4c0.5-0.5,0.9-0.6,1.5-0.5c0,0.1,0.1,0.2,0.1,0.3
		c0,1.9,0,3.8,0,5.8c0,0.2-0.1,0.5-0.3,0.5c-4.6,2.2-9.3,2.4-14,0.7c-4.4-1.6-6.7-4.9-7.3-9.4c-0.3-2.5-0.2-5.1,0.7-7.5
		c1.6-4.2,4.7-6.5,9-7.4c4-0.8,7.8-0.4,11.5,1.3c0.3,0.2,0.5,0.3,0.5,0.7c0,1.9,0,3.8,0,5.6C244,28.7,243.9,28.8,243.9,28.9z"/>
	<path fill="#24373F" d="M148.4,11.8c0,11.3,0,22.5,0,33.8c-2.5,0-5,0-7.6,0c0-11.3,0-22.5,0-33.8C143.3,11.8,145.8,11.8,148.4,11.8
		z"/>
	<path fill="#24373F" d="M136.9,45.6c-2.5,0-5,0-7.6,0c0-11.3,0-22.6,0-33.9c2.5,0,5,0,7.6,0C136.9,23,136.9,34.3,136.9,45.6z"/>
</g>
</svg>
